<svg xmlns="http://www.w3.org/2000/svg" version="1.1" xmlns:xlink="http://www.w3.org/1999/xlink" xmlns:svgjs="http://svgjs.dev/svgjs" width="2000" height="550" viewBox="0 0 2000 550"><g transform="matrix(1,0,0,1,-1.2121212121212466,0.2794869970874174)"><svg viewBox="0 0 396 109" data-background-color="#21232b" preserveAspectRatio="xMidYMid meet" height="550" width="2000" xmlns="http://www.w3.org/2000/svg" xmlns:xlink="http://www.w3.org/1999/xlink"><g id="tight-bounds" transform="matrix(1,0,0,1,0.2400000000000091,-0.055389241240959564)"><svg viewBox="0 0 395.52 109.11061198083186" height="109.11061198083186" width="395.52"><g><svg viewBox="0 0 586.6167527186728 161.8277530525453" height="109.11061198083186" width="395.52"><g transform="matrix(1,0,0,1,191.09675271867283,49.91856181180829)"><svg viewBox="0 0 395.52 61.99062942892871" height="61.99062942892871" width="395.52"><g id="textblocktransform"><svg viewBox="0 0 395.52 61.99062942892871" height="61.99062942892871" width="395.52" id="textblock"><g><svg viewBox="0 0 395.52 61.99062942892871" height="61.99062942892871" width="395.52"><g transform="matrix(1,0,0,1,0,0)"><svg width="395.52" viewBox="4.15 -37 239.88 37.6" height="61.99062942892871" data-palette-color="#f4f3f0"><path d="M8.15-15L8.15 0 4.15 0 4.15-34.9 17-34.9Q25.65-34.9 25.65-24.95L25.65-24.95Q25.65-16.55 19.45-15.25L19.45-15.25 26.5 0 22 0 15.45-15 8.15-15ZM8.15-18.4L16.9-18.4Q21.35-18.4 21.35-23.2L21.35-23.2 21.35-26.6Q21.35-31.4 16.9-31.4L16.9-31.4 8.15-31.4 8.15-18.4ZM34.6-32.05L34.6-32.05Q32.25-32.05 32.25-34.1L32.25-34.1 32.25-34.9Q32.25-36.95 34.6-36.95L34.6-36.95Q36.95-36.95 36.95-34.9L36.95-34.9 36.95-34.1Q36.95-32.05 34.6-32.05ZM32.7 0L32.7-25.8 36.5-25.8 36.5 0 32.7 0ZM58.9 0L58.9-4.2 58.4-4.2Q57.65-1.65 55.97-0.53 54.3 0.6 51.9 0.6L51.9 0.6Q49.59 0.6 47.84-0.35 46.09-1.3 44.9-3.05 43.7-4.8 43.09-7.3 42.5-9.8 42.5-12.9L42.5-12.9Q42.5-16 43.09-18.5 43.7-21 44.9-22.75 46.09-24.5 47.84-25.45 49.59-26.4 51.9-26.4L51.9-26.4Q54.3-26.4 55.97-25.28 57.65-24.15 58.4-21.6L58.4-21.6 58.9-21.6 58.9-37 62.7-37 62.7 0 58.9 0ZM53.05-2.8L53.05-2.8Q54.25-2.8 55.32-3.15 56.4-3.5 57.17-4.15 57.95-4.8 58.42-5.7 58.9-6.6 58.9-7.7L58.9-7.7 58.9-18.1Q58.9-19.2 58.42-20.1 57.95-21 57.17-21.65 56.4-22.3 55.32-22.65 54.25-23 53.05-23L53.05-23Q49.9-23 48.25-21.03 46.59-19.05 46.59-15.5L46.59-15.5 46.59-10.3Q46.59-6.75 48.25-4.78 49.9-2.8 53.05-2.8ZM79.09 0.6L79.09 0.6Q76.84 0.6 74.89-0.15 72.94-0.9 71.54-2.55 70.14-4.2 69.34-6.75 68.54-9.3 68.54-12.9L68.54-12.9Q68.54-16.5 69.34-19.05 70.14-21.6 71.54-23.25 72.94-24.9 74.89-25.65 76.84-26.4 79.09-26.4L79.09-26.4Q81.34-26.4 83.22-25.65 85.09-24.9 86.39-23.25 87.69-21.6 88.42-19.05 89.14-16.5 89.14-12.9L89.14-12.9 89.14-11.95 72.59-11.95 72.59-10.3Q72.59-6.5 74.32-4.63 76.04-2.75 79.09-2.75L79.09-2.75Q81.69-2.75 83.34-3.88 84.99-5 85.94-7.25L85.94-7.25 88.54-5.35Q87.34-2.7 85.02-1.05 82.69 0.6 79.09 0.6ZM79.09-23.2L79.09-23.2Q75.99-23.2 74.29-21.25 72.59-19.3 72.59-15.5L72.59-15.5 72.59-14.85 85.09-14.85 85.09-15.5Q85.09-23.2 79.09-23.2ZM109.99-15L109.99 0 105.99 0 105.99-34.9 118.84-34.9Q127.49-34.9 127.49-24.95L127.49-24.95Q127.49-16.55 121.29-15.25L121.29-15.25 128.34 0 123.84 0 117.29-15 109.99-15ZM109.99-18.4L118.74-18.4Q123.19-18.4 123.19-23.2L123.19-23.2 123.19-26.6Q123.19-31.4 118.74-31.4L118.74-31.4 109.99-31.4 109.99-18.4ZM153.04 0L150.34 0Q146.64 0 146.64-3.7L146.64-3.7 146.64-4.2 146.14-4.2Q145.49-1.85 143.76-0.63 142.04 0.6 139.64 0.6L139.64 0.6Q135.89 0.6 134.04-1.3 132.19-3.2 132.19-6.9L132.19-6.9Q132.19-10.5 134.56-12.6 136.94-14.7 141.99-14.7L141.99-14.7 146.64-14.7 146.64-17.55Q146.64-20.4 145.36-21.75 144.09-23.1 141.34-23.1L141.34-23.1Q139.09-23.1 137.71-22.13 136.34-21.15 135.34-19.3L135.34-19.3 133.09-21.4Q134.09-23.5 136.29-24.93 138.49-26.35 141.49-26.35L141.49-26.35Q145.89-26.35 148.16-24.23 150.44-22.1 150.44-17.95L150.44-17.95 150.44-3.35 153.04-3.35 153.04 0ZM140.59-2.7L140.59-2.7Q141.89-2.7 143.01-3.15 144.14-3.6 144.94-4.33 145.74-5.05 146.19-5.98 146.64-6.9 146.64-7.9L146.64-7.9 146.64-11.8 141.89-11.8Q138.89-11.8 137.51-10.8 136.14-9.8 136.14-7.9L136.14-7.9 136.14-6.5Q136.14-4.55 137.34-3.63 138.54-2.7 140.59-2.7ZM161.98 0L158.18 0 158.18-25.8 161.98-25.8 161.98-21.6 162.48-21.6Q163.23-24 164.81-25.2 166.38-26.4 169.08-26.4L169.08-26.4Q172.53-26.4 174.51-24.05 176.48-21.7 176.48-16.8L176.48-16.8 176.48 0 172.68 0 172.68-16.55Q172.68-19.65 171.41-21.3 170.13-22.95 167.48-22.95L167.48-22.95Q165.18-22.95 163.58-21.55 161.98-20.15 161.98-17.6L161.98-17.6 161.98 0ZM183.83 0L183.83-37 187.63-37 187.63-18 187.33-12.95 187.73-12.95 191.33-17.8 197.78-25.8 202.38-25.8 193.83-15.55 203.13 0 198.58 0 191.03-13.3 187.63-9.3 187.63 0 183.83 0ZM216.03 0.6L216.03 0.6Q213.78 0.6 211.83-0.15 209.88-0.9 208.48-2.55 207.08-4.2 206.28-6.75 205.48-9.3 205.48-12.9L205.48-12.9Q205.48-16.5 206.28-19.05 207.08-21.6 208.48-23.25 209.88-24.9 211.83-25.65 213.78-26.4 216.03-26.4L216.03-26.4Q218.28-26.4 220.15-25.65 222.03-24.9 223.33-23.25 224.63-21.6 225.35-19.05 226.08-16.5 226.08-12.9L226.08-12.9 226.08-11.95 209.53-11.95 209.53-10.3Q209.53-6.5 211.25-4.63 212.98-2.75 216.03-2.75L216.03-2.75Q218.63-2.75 220.28-3.88 221.93-5 222.88-7.25L222.88-7.25 225.48-5.35Q224.28-2.7 221.95-1.05 219.63 0.6 216.03 0.6ZM216.03-23.2L216.03-23.2Q212.93-23.2 211.23-21.25 209.53-19.3 209.53-15.5L209.53-15.5 209.53-14.85 222.03-14.85 222.03-15.5Q222.03-23.2 216.03-23.2ZM235.78 0L231.98 0 231.98-25.8 235.78-25.8 235.78-21 236.28-21Q236.93-23.25 238.5-24.53 240.08-25.8 242.63-25.8L242.63-25.8 244.03-25.8 244.03-21.95 241.53-21.95Q238.83-21.95 237.3-20.75 235.78-19.55 235.78-17.15L235.78-17.15 235.78 0Z" opacity="1" transform="matrix(1,0,0,1,0,0)" fill="#f4f3f0" class="wordmark-text-0" data-fill-palette-color="primary" id="text-0"></path></svg></g></svg></g></svg></g></svg></g><g><svg viewBox="0 0 161.8277530525453 161.8277530525453" height="161.8277530525453" width="161.8277530525453"><g><svg></svg></g><g id="icon-0"><svg viewBox="0 0 161.8277530525453 161.8277530525453" height="161.8277530525453" width="161.8277530525453"><g><path d="M0 80.914c0-44.688 36.226-80.914 80.914-80.914 44.688 0 80.914 36.226 80.914 80.914 0 44.688-36.226 80.914-80.914 80.914-44.688 0-80.914-36.226-80.914-80.914zM80.914 156.237c41.6 0 75.323-33.723 75.323-75.323 0-41.6-33.723-75.323-75.323-75.324-41.6 0-75.323 33.723-75.324 75.324 0 41.6 33.723 75.323 75.324 75.323z" data-fill-palette-color="accent" fill="#43c59e" stroke="transparent"></path></g><g transform="matrix(1,0,0,1,33.79164136080535,45.15274994088241)"><svg viewBox="0 0 94.24447033093459 71.52225317078047" height="71.52225317078047" width="94.24447033093459"><g><svg xmlns="http://www.w3.org/2000/svg" xmlns:xlink="http://www.w3.org/1999/xlink" version="1.1" x="0" y="0" viewBox="1.0999999999999996 13 98.30000000000001 74.60000000000001" style="enable-background:new 0 0 100 100;" xml:space="preserve" height="71.52225317078047" width="94.24447033093459" class="icon-cg-0" data-fill-palette-color="accent" id="cg-0"><path d="M90.6 37.3c0-0.1 0-0.1 0-0.2h7.7v-4.6h-8.4C87.3 21.3 77.2 13 65.2 13H35.5c-12 0-22.1 8.4-24.8 19.6H2.3v4.6H10c0 0 0 0 0 0-5.4 3.5-8.9 9.6-8.9 16.5V56c0 5.6 2.4 10.7 6.2 14.3v8.9c0 4.6 3.7 8.4 8.4 8.4h7.2c4.6 0 8.4-3.7 8.4-8.4v-3.5h39.2v3.5c0 4.6 3.7 8.4 8.4 8.4H86c4.6 0 8.4-3.7 8.4-8.4V69c3.1-3.5 5-8 5-13v-2.4C99.3 46.8 95.8 40.9 90.6 37.3zM35.5 17.5H48l0 2h-4.9v4.4h14v-4.4h-4.8l0-2h12.8c10.3 0 18.9 7.5 20.6 17.4-1.6-0.5-3.4-0.9-5.2-1-1.3-5.5-6.2-9.5-12-9.5-5.8 0-10.7 4.1-12 9.5H20.8c-2 0-4 0.3-5.9 0.9C16.6 25 25.2 17.5 35.5 17.5zM76 33.9H61.1c1.1-3 4.1-5.1 7.4-5.1C72 28.8 74.9 30.9 76 33.9zM11.9 79.2v-5.7c2.7 1.4 5.7 2.2 8.9 2.2h2.1c0 1.6-0.2 5.6-1.7 7.3h-5.6C13.6 83 11.9 81.3 11.9 79.2zM89.8 79.2c0 2.1-1.7 3.8-3.8 3.8h-6.8c-1.4-1.8-1.6-5.7-1.7-7.3h2.1c3.7 0 7.2-1.1 10.2-2.9V79.2zM94.7 56c0 8.3-6.8 15.1-15.1 15.1H20.8c-8.3 0-15.1-6.8-15.1-15.1v-2.4c0-8.3 6.8-15.1 15.1-15.1h58.8c8.3 0 15.1 6.8 15.1 15.1V56z" fill="#43c59e" data-fill-palette-color="accent"></path><circle cx="23.5" cy="55" r="5.4" fill="#43c59e" data-fill-palette-color="accent"></circle><circle cx="78" cy="55" r="5.4" fill="#43c59e" data-fill-palette-color="accent"></circle></svg></g></svg></g></svg></g></svg></g></svg></g><defs></defs></svg><rect width="395.52" height="109.11061198083186" fill="none" stroke="none" visibility="hidden"></rect></g></svg></g></svg>