<svg xmlns="http://www.w3.org/2000/svg"  viewBox="0 0 100 100" width="240px" height="240px"><path d="M 50 20 C 38.2283 20 27.556842 23.055251 19.761719 28.066406 C 11.966596 33.077561 7 40.123814 7 48 C 7 55.876186 11.966596 62.922439 19.761719 67.933594 C 27.556842 72.944749 38.2283 76 50 76 C 61.7717 76 72.443158 72.944749 80.238281 67.933594 C 88.033404 62.922439 93 55.876186 93 48 C 93 40.123814 88.033404 33.077561 80.238281 28.066406 C 72.443158 23.055251 61.7717 20 50 20 z M 50 22 C 61.424275 22 71.752329 24.989077 79.158203 29.75 C 86.564077 34.510923 91 40.964498 91 48 C 91 55.035502 86.564077 61.489077 79.158203 66.25 C 71.752329 71.010923 61.424275 74 50 74 C 38.575725 74 28.247671 71.010923 20.841797 66.25 C 13.435923 61.489077 9 55.035502 9 48 C 9 40.964498 13.435923 34.510923 20.841797 29.75 C 28.247671 24.989077 38.575725 22 50 22 z M 50 25.400391 A 1.0001 1.0001 0 0 0 49.892578 25.408203 C 43.799291 25.418003 38.274855 26.2046 34.181641 27.601562 C 32.122264 28.304402 30.419336 29.15521 29.167969 30.201172 C 27.916602 31.247134 27.087891 32.566967 27.087891 34.050781 C 27.087891 36.090275 28.558186 37.824292 30.716797 39.212891 C 32.875408 40.601489 35.834204 41.720985 39.332031 42.492188 A 1.0001 1.0001 0 0 0 40.535156 41.673828 C 41.215322 37.408797 42.572667 33.754171 44.285156 31.236328 C 45.997646 28.718485 47.97944 27.400391 50 27.400391 C 52.02056 27.400391 54.002354 28.718485 55.714844 31.236328 C 57.427333 33.754171 58.784678 37.408797 59.464844 41.673828 A 1.0001 1.0001 0 0 0 60.667969 42.492188 C 64.165796 41.720985 67.124592 40.601489 69.283203 39.212891 C 71.441814 37.824292 72.912109 36.090275 72.912109 34.050781 C 72.912109 32.566967 72.083398 31.247134 70.832031 30.201172 C 69.580664 29.15521 67.877736 28.304403 65.818359 27.601562 C 61.699606 26.195896 56.138506 25.400391 50 25.400391 z M 44.939453 27.736328 C 44.132737 28.450185 43.302809 29.123372 42.630859 30.111328 C 40.861854 32.712265 39.59853 36.263374 38.833984 40.267578 C 35.952269 39.548128 33.472778 38.608074 31.798828 37.53125 C 29.933939 36.331598 29.087891 35.085287 29.087891 34.050781 C 29.087891 33.298095 29.484789 32.542131 30.451172 31.734375 C 31.417555 30.926619 32.922002 30.144676 34.828125 29.494141 C 37.491033 28.585324 41.077407 28.052224 44.939453 27.736328 z M 55.060547 27.736328 C 58.922593 28.052224 62.508967 28.585324 65.171875 29.494141 C 67.077998 30.144676 68.582445 30.926619 69.548828 31.734375 C 70.515211 32.542131 70.912109 33.298095 70.912109 34.050781 C 70.912109 35.085287 70.066061 36.331598 68.201172 37.53125 C 66.527222 38.608074 64.047731 39.548128 61.166016 40.267578 C 60.40147 36.263374 59.138146 32.712265 57.369141 30.111328 C 56.697191 29.123372 55.867263 28.450185 55.060547 27.736328 z M 50 32.599609 C 48.33664 32.599609 47.032293 33.856555 46.072266 35.556641 C 45.112238 37.256726 44.40386 39.53878 43.972656 42.197266 A 1.0001 1.0001 0 0 0 44.863281 43.351562 C 46.513748 43.511615 48.230974 43.599609 50 43.599609 C 51.769026 43.599609 53.486252 43.51162 55.136719 43.351562 A 1.0001 1.0001 0 0 0 56.027344 42.197266 C 55.59614 39.53878 54.887762 37.256726 53.927734 35.556641 C 52.967707 33.856555 51.66336 32.599609 50 32.599609 z M 50 34.599609 C 50.60064 34.599609 51.399824 35.147649 52.185547 36.539062 C 52.844011 37.70512 53.389482 39.443268 53.798828 41.416016 C 52.556385 41.508886 51.308178 41.599609 50 41.599609 C 48.691822 41.599609 47.443615 41.508889 46.201172 41.416016 C 46.610518 39.443268 47.155989 37.705119 47.814453 36.539062 C 48.600176 35.147648 49.39936 34.599609 50 34.599609 z M 21.019531 35.142578 A 1.0001 1.0001 0 0 0 20.318359 35.416016 C 16.570069 38.960233 14.304687 43.300213 14.304688 48 C 14.304688 54.398596 18.4649 60.09357 24.9375 64.123047 C 31.384341 68.136488 40.183997 70.572402 49.886719 70.591797 C 49.902109 70.591828 49.916251 70.595703 49.931641 70.595703 A 1.0001 1.0001 0 0 0 49.986328 70.599609 L 50 70.599609 C 59.748741 70.599609 68.5899 68.152524 75.0625 64.123047 C 81.535101 60.093582 85.695313 54.398596 85.695312 48 C 85.695312 43.300213 83.429931 38.960233 79.681641 35.416016 A 1.0001 1.0001 0 0 0 78.027344 35.888672 C 77.473564 37.997719 75.596441 40.108644 72.587891 41.902344 C 69.57934 43.696043 65.488875 45.15222 60.748047 46.037109 A 1.0001 1.0001 0 0 0 59.931641 47.041016 C 59.939141 47.390644 59.957031 47.705254 59.957031 48 C 59.957031 53.827439 58.745383 59.094459 56.855469 62.820312 C 54.965555 66.546167 52.493339 68.599609 50 68.599609 C 47.506661 68.599609 45.034445 66.546168 43.144531 62.820312 C 41.254617 59.094459 40.042969 53.827439 40.042969 48 C 40.042969 47.705254 40.060879 47.390644 40.068359 47.041016 A 1.0001 1.0001 0 0 0 39.251953 46.037109 C 34.511125 45.15222 30.42066 43.696043 27.412109 41.902344 C 24.403559 40.108644 22.526436 37.997719 21.972656 35.888672 A 1.0001 1.0001 0 0 0 21.019531 35.142578 z M 20.689453 37.978516 C 21.76364 40.141707 23.737396 42.039613 26.386719 43.619141 C 29.468666 45.456599 33.498068 46.855227 38.048828 47.785156 C 38.047428 47.860586 38.042969 47.921248 38.042969 48 C 38.042969 54.101561 39.283789 59.634667 41.359375 63.726562 C 42.29459 65.570284 43.44235 67.090315 44.720703 68.267578 C 37.444282 67.555587 30.911388 65.483814 25.996094 62.423828 C 19.910943 58.635555 16.304687 53.530404 16.304688 48 C 16.304688 44.382406 17.91286 40.989024 20.689453 37.978516 z M 79.310547 37.978516 C 82.08714 40.989024 83.695313 44.382406 83.695312 48 C 83.695312 53.530404 80.089057 58.635555 74.003906 62.423828 C 69.088612 65.483814 62.555759 67.555587 55.279297 68.267578 C 56.55765 67.090315 57.70541 65.570284 58.640625 63.726562 C 60.716211 59.634667 61.957031 54.101561 61.957031 48 C 61.957031 47.92125 61.952672 47.860581 61.951172 47.785156 C 66.501932 46.855227 70.531334 45.456599 73.613281 43.619141 C 76.262604 42.039613 78.23636 40.141707 79.310547 37.978516 z M 44.513672 46.763672 A 1.0001 1.0001 0 0 0 43.525391 47.763672 C 43.525391 47.802002 43.521484 47.878333 43.521484 48 C 43.521484 52.078783 44.140062 55.773122 45.191406 58.537109 C 45.717078 59.919103 46.346506 61.07406 47.123047 61.9375 C 47.899588 62.80094 48.886403 63.400391 49.998047 63.400391 C 51.109691 63.400391 52.098459 62.80094 52.875 61.9375 C 53.651541 61.07406 54.280969 59.919103 54.806641 58.537109 C 55.857978 55.773122 56.476563 52.078783 56.476562 48 C 56.476563 47.886667 56.473356 47.804693 56.472656 47.75 A 1.0001 1.0001 0 0 0 55.384766 46.767578 C 53.643601 46.92095 51.842138 47 50 47 C 48.157862 47 46.356541 46.92096 44.613281 46.767578 A 1.0001 1.0001 0 0 0 44.513672 46.763672 z M 45.583984 48.808594 C 47.033076 48.909325 48.491708 49 50 49 C 51.508155 49 52.966048 48.90931 54.414062 48.808594 C 54.331992 52.340252 53.799544 55.559854 52.9375 57.826172 C 52.471922 59.050178 51.922944 60.005549 51.388672 60.599609 C 50.8544 61.193669 50.399403 61.400391 49.998047 61.400391 C 49.596691 61.400391 49.143647 61.193669 48.609375 60.599609 C 48.075103 60.005549 47.526125 59.050178 47.060547 57.826172 C 46.198503 55.559854 45.666056 52.340252 45.583984 48.808594 z"/></svg>