<?xml version="1.0"?><svg xmlns="http://www.w3.org/2000/svg"  viewBox="0 0 50 50" width="240px" height="240px">    <path d="M25,2C12.317,2,2,12.318,2,25s10.317,23,23,23s23-10.318,23-23S37.683,2,25,2z M30.873,6.94L30.873,6.94L25,20L19.127,6.94 l0,0C20.978,6.336,22.95,6,25,6S29.022,6.336,30.873,6.94z M15.241,8.728L15.241,8.728L22.398,24h5.203l7.157-15.272l0,0 c2.13,1.283,3.985,2.966,5.466,4.953l0,0L31.353,33l-3.693-7h-5.32l-3.693,7L9.775,13.681l0,0 C11.256,11.695,13.111,10.011,15.241,8.728z M6,25c0-2.348,0.448-4.587,1.23-6.665l0,0L18.144,42.7 c0.007,0.003,0.014,0.005,0.021,0.008C11.06,39.955,6,33.065,6,25z M18.185,42.715L25,30l6.815,12.715 C29.696,43.533,27.404,44,25,44S20.304,43.533,18.185,42.715z M31.834,42.708c0.007-0.003,0.014-0.005,0.021-0.008L42.77,18.335l0,0 C43.552,20.413,44,22.652,44,25C44,33.065,38.94,39.955,31.834,42.708z"/></svg>